<svg xmlns="http://www.w3.org/2000/svg" xmlns:xlink="http://www.w3.org/1999/xlink" id="processonSvg1000" width="822.586" height="2086.111" viewBox="120.5 10.333 822.586 2086.111"><defs id="ProcessOnDefs1001"><marker id="ProcessOnMarker1012" markerHeight="10.551" markerUnits="userSpaceOnUse" markerWidth="16.236" orient="auto" refX="-1" refY="3.899" viewBox="-1 -1.376 16.236 10.551"><path id="ProcessOnPath1013" fill="#323232" stroke="#323232" stroke-width="2" d="M12.0 3.8990363547948754L0.0 7.798072709589751V0.0Z" transform="matrix(1.0,0.0,0.0,1.0,0.0,0.0)"/></marker><marker id="ProcessOnMarker1020" markerHeight="10.551" markerUnits="userSpaceOnUse" markerWidth="16.236" orient="auto" refX="-1" refY="3.899" viewBox="-1 -1.376 16.236 10.551"><path id="ProcessOnPath1021" fill="#323232" stroke="#323232" stroke-width="2" d="M12.0 3.8990363547948754L0.0 7.798072709589751V0.0Z" transform="matrix(1.0,0.0,0.0,1.0,0.0,0.0)"/></marker><marker id="ProcessOnMarker1036" markerHeight="10.551" markerUnits="userSpaceOnUse" markerWidth="16.236" orient="auto" refX="-1" refY="3.899" viewBox="-1 -1.376 16.236 10.551"><path id="ProcessOnPath1037" fill="#323232" stroke="#323232" stroke-width="2" d="M12.0 3.8990363547948754L0.0 7.798072709589751V0.0Z" transform="matrix(1.0,0.0,0.0,1.0,0.0,0.0)"/></marker><marker id="ProcessOnMarker1044" markerHeight="10.551" markerUnits="userSpaceOnUse" markerWidth="16.236" orient="auto" refX="-1" refY="3.899" viewBox="-1 -1.376 16.236 10.551"><path id="ProcessOnPath1045" fill="#323232" stroke="#323232" stroke-width="2" d="M12.0 3.8990363547948754L0.0 7.798072709589751V0.0Z" transform="matrix(1.0,0.0,0.0,1.0,0.0,0.0)"/></marker><marker id="ProcessOnMarker1052" markerHeight="10.551" markerUnits="userSpaceOnUse" markerWidth="16.236" orient="auto" refX="-1" refY="3.899" viewBox="-1 -1.376 16.236 10.551"><path id="ProcessOnPath1053" fill="#323232" stroke="#323232" stroke-width="2" d="M12.0 3.8990363547948754L0.0 7.798072709589751V0.0Z" transform="matrix(1.0,0.0,0.0,1.0,0.0,0.0)"/></marker><marker id="ProcessOnMarker1060" markerHeight="10.551" markerUnits="userSpaceOnUse" markerWidth="16.236" orient="auto" refX="-1" refY="3.899" viewBox="-1 -1.376 16.236 10.551"><path id="ProcessOnPath1061" fill="#323232" stroke="#323232" stroke-width="2" d="M12.0 3.8990363547948754L0.0 7.798072709589751V0.0Z" transform="matrix(1.0,0.0,0.0,1.0,0.0,0.0)"/></marker><marker id="ProcessOnMarker1072" markerHeight="10.551" markerUnits="userSpaceOnUse" markerWidth="16.236" orient="auto" refX="-1" refY="3.899" viewBox="-1 -1.376 16.236 10.551"><path id="ProcessOnPath1073" fill="#323232" stroke="#323232" stroke-width="2" d="M12.0 3.8990363547948754L0.0 7.798072709589751V0.0Z" transform="matrix(1.0,0.0,0.0,1.0,0.0,0.0)"/></marker><marker id="ProcessOnMarker1082" markerHeight="10.551" markerUnits="userSpaceOnUse" markerWidth="16.236" orient="auto" refX="-1" refY="3.899" viewBox="-1 -1.376 16.236 10.551"><path id="ProcessOnPath1083" fill="#323232" stroke="#323232" stroke-width="2" d="M12.0 3.8990363547948754L0.0 7.798072709589751V0.0Z" transform="matrix(1.0,0.0,0.0,1.0,0.0,0.0)"/></marker><marker id="ProcessOnMarker1097" markerHeight="10.551" markerUnits="userSpaceOnUse" markerWidth="16.236" orient="auto" refX="-1" refY="3.899" viewBox="-1 -1.376 16.236 10.551"><path id="ProcessOnPath1098" fill="#323232" stroke="#323232" stroke-width="2" d="M12.0 3.8990363547948754L0.0 7.798072709589751V0.0Z" transform="matrix(1.0,0.0,0.0,1.0,0.0,0.0)"/></marker><marker id="ProcessOnMarker1101" markerHeight="10.551" markerUnits="userSpaceOnUse" markerWidth="16.236" orient="auto" refX="-1" refY="3.899" viewBox="-1 -1.376 16.236 10.551"><path id="ProcessOnPath1102" fill="#323232" stroke="#323232" stroke-width="2" d="M12.0 3.8990363547948754L0.0 7.798072709589751V0.0Z" transform="matrix(1.0,0.0,0.0,1.0,0.0,0.0)"/></marker><marker id="ProcessOnMarker1105" markerHeight="10.551" markerUnits="userSpaceOnUse" markerWidth="16.236" orient="auto" refX="-1" refY="3.899" viewBox="-1 -1.376 16.236 10.551"><path id="ProcessOnPath1106" fill="#323232" stroke="#323232" stroke-width="2" d="M12.0 3.8990363547948754L0.0 7.798072709589751V0.0Z" transform="matrix(1.0,0.0,0.0,1.0,0.0,0.0)"/></marker><marker id="ProcessOnMarker1113" markerHeight="10.551" markerUnits="userSpaceOnUse" markerWidth="16.236" orient="auto" refX="-1" refY="3.899" viewBox="-1 -1.376 16.236 10.551"><path id="ProcessOnPath1114" fill="#323232" stroke="#323232" stroke-width="2" d="M12.0 3.8990363547948754L0.0 7.798072709589751V0.0Z" transform="matrix(1.0,0.0,0.0,1.0,0.0,0.0)"/></marker><marker id="ProcessOnMarker1125" markerHeight="10.551" markerUnits="userSpaceOnUse" markerWidth="16.236" orient="auto" refX="-1" refY="3.899" viewBox="-1 -1.376 16.236 10.551"><path id="ProcessOnPath1126" fill="#323232" stroke="#323232" stroke-width="2" d="M12.0 3.8990363547948754L0.0 7.798072709589751V0.0Z" transform="matrix(1.0,0.0,0.0,1.0,0.0,0.0)"/></marker><marker id="ProcessOnMarker1133" markerHeight="10.551" markerUnits="userSpaceOnUse" markerWidth="16.236" orient="auto" refX="-1" refY="3.899" viewBox="-1 -1.376 16.236 10.551"><path id="ProcessOnPath1134" fill="#323232" stroke="#323232" stroke-width="2" d="M12.0 3.8990363547948754L0.0 7.798072709589751V0.0Z" transform="matrix(1.0,0.0,0.0,1.0,0.0,0.0)"/></marker><marker id="ProcessOnMarker1141" markerHeight="10.551" markerUnits="userSpaceOnUse" markerWidth="16.236" orient="auto" refX="-1" refY="3.899" viewBox="-1 -1.376 16.236 10.551"><path id="ProcessOnPath1142" fill="#323232" stroke="#323232" stroke-width="2" d="M12.0 3.8990363547948754L0.0 7.798072709589751V0.0Z" transform="matrix(1.0,0.0,0.0,1.0,0.0,0.0)"/></marker><marker id="ProcessOnMarker1155" markerHeight="10.551" markerUnits="userSpaceOnUse" markerWidth="16.236" orient="auto" refX="-1" refY="3.899" viewBox="-1 -1.376 16.236 10.551"><path id="ProcessOnPath1156" fill="#323232" stroke="#323232" stroke-width="2" d="M12.0 3.8990363547948754L0.0 7.798072709589751V0.0Z" transform="matrix(1.0,0.0,0.0,1.0,0.0,0.0)"/></marker><marker id="ProcessOnMarker1168" markerHeight="10.551" markerUnits="userSpaceOnUse" markerWidth="16.236" orient="auto" refX="-1" refY="3.899" viewBox="-1 -1.376 16.236 10.551"><path id="ProcessOnPath1169" fill="#323232" stroke="#323232" stroke-width="2" d="M12.0 3.8990363547948754L0.0 7.798072709589751V0.0Z" transform="matrix(1.0,0.0,0.0,1.0,0.0,0.0)"/></marker><marker id="ProcessOnMarker1201" markerHeight="10.551" markerUnits="userSpaceOnUse" markerWidth="16.236" orient="auto" refX="-1" refY="3.899" viewBox="-1 -1.376 16.236 10.551"><path id="ProcessOnPath1202" fill="#323232" stroke="#323232" stroke-width="2" d="M12.0 3.8990363547948754L0.0 7.798072709589751V0.0Z" transform="matrix(1.0,0.0,0.0,1.0,0.0,0.0)"/></marker><marker id="ProcessOnMarker1214" markerHeight="10.551" markerUnits="userSpaceOnUse" markerWidth="16.236" orient="auto" refX="-1" refY="3.899" viewBox="-1 -1.376 16.236 10.551"><path id="ProcessOnPath1215" fill="#323232" stroke="#323232" stroke-width="2" d="M12.0 3.8990363547948754L0.0 7.798072709589751V0.0Z" transform="matrix(1.0,0.0,0.0,1.0,0.0,0.0)"/></marker><marker id="ProcessOnMarker1226" markerHeight="10.551" markerUnits="userSpaceOnUse" markerWidth="16.236" orient="auto" refX="-1" refY="3.899" viewBox="-1 -1.376 16.236 10.551"><path id="ProcessOnPath1227" fill="#323232" stroke="#323232" stroke-width="2" d="M12.0 3.8990363547948754L0.0 7.798072709589751V0.0Z" transform="matrix(1.0,0.0,0.0,1.0,0.0,0.0)"/></marker><marker id="ProcessOnMarker1234" markerHeight="10.551" markerUnits="userSpaceOnUse" markerWidth="16.236" orient="auto" refX="-1" refY="3.899" viewBox="-1 -1.376 16.236 10.551"><path id="ProcessOnPath1235" fill="#323232" stroke="#323232" stroke-width="2" d="M12.0 3.8990363547948754L0.0 7.798072709589751V0.0Z" transform="matrix(1.0,0.0,0.0,1.0,0.0,0.0)"/></marker><marker id="ProcessOnMarker1269" markerHeight="10.551" markerUnits="userSpaceOnUse" markerWidth="16.236" orient="auto" refX="-1" refY="3.899" viewBox="-1 -1.376 16.236 10.551"><path id="ProcessOnPath1270" fill="#323232" stroke="#323232" stroke-width="2" d="M12.0 3.8990363547948754L0.0 7.798072709589751V0.0Z" transform="matrix(1.0,0.0,0.0,1.0,0.0,0.0)"/></marker><marker id="ProcessOnMarker1282" markerHeight="10.551" markerUnits="userSpaceOnUse" markerWidth="16.236" orient="auto" refX="-1" refY="3.899" viewBox="-1 -1.376 16.236 10.551"><path id="ProcessOnPath1283" fill="#323232" stroke="#323232" stroke-width="2" d="M12.0 3.8990363547948754L0.0 7.798072709589751V0.0Z" transform="matrix(1.0,0.0,0.0,1.0,0.0,0.0)"/></marker></defs><g id="ProcessOnG1002"><path id="ProcessOnPath1003" fill="none" d="M120.5 10.333333333333357H943.0864197530857V2096.444444444445H120.5V10.333333333333485Z"/><g id="ProcessOnG1004"><g id="ProcessOnG1005" opacity="1" transform="matrix(1.0,0.0,0.0,1.0,403.12345679012344,171.33333333333323)"><path id="ProcessOnPath1006" fill="#fff" stroke="#323232" stroke-dasharray="none" stroke-width="2" d="M0.0 0.0L100.0 0.0L100.0 70.0L0.0 70.0Z" opacity="1"/><g id="ProcessOnG1007" transform="matrix(1.0,0.0,0.0,1.0,10.0,18.75)"><text id="ProcessOnText1008" x="39" y="13.325" fill="#000" family="Arial" font-family="Arial" font-size="13" font-style="normal" font-weight="normal" size="13" text-anchor="middle" text-decoration="none">Transfer EOS</text><text id="ProcessOnText1009" x="39" y="29.575" fill="#000" family="Arial" font-family="Arial" font-size="13" font-style="normal" font-weight="normal" size="13" text-anchor="middle" text-decoration="none">to Contract</text></g></g><g id="ProcessOnG1010"><path id="ProcessOnPath1011" fill="none" stroke="#323232" stroke-dasharray="none" stroke-width="2" marker-end="url(#ProcessOnMarker1012)" d="M453.0 243.3333333333332L453.0 279.3333333333332L453.0 279.3333333333332L453.0 300.09726535583343"/></g><g id="ProcessOnG1014" opacity="1" transform="matrix(1.0,0.0,0.0,1.0,369.0,320.3333333333332)"><path id="ProcessOnPath1015" fill="#fff" stroke="#323232" stroke-dasharray="none" stroke-width="2" d="M0.0 43.5L84.0 0.0L168.0 43.5L84.0 87.0L0.0 43.5Z" opacity="1"/><g id="ProcessOnG1016" transform="matrix(1.0,0.0,0.0,1.0,10.0,35.375)"><text id="ProcessOnText1017" x="73" y="13.325" fill="#000" family="Arial" font-family="Arial" font-size="13" font-style="normal" font-weight="normal" size="13" text-anchor="middle" text-decoration="none">Price Plan Matched？</text></g></g><g id="ProcessOnG1018"><path id="ProcessOnPath1019" fill="none" stroke="#323232" stroke-dasharray="none" stroke-width="2" marker-end="url(#ProcessOnMarker1020)" d="M537.0 363.8333333333333L590.3888888888889 363.8333333333333L590.3888888888889 363.8333333333333L628.541709800278 363.8333333333333"/></g><g id="ProcessOnG1022" opacity="1" transform="matrix(1.0,0.0,0.0,1.0,853.0864197530857,328.40123456790207)"><path id="ProcessOnPath1023" fill="#fff" stroke="#323232" stroke-dasharray="none" stroke-width="2" d="M0.0 35.0C0.0 -11.666666666666666 70.0 -11.666666666666666 70.0 35.0C70.0 81.66666666666667 0.0 81.66666666666667 0.0 35.0Z" opacity="1"/><g id="ProcessOnG1024" transform="matrix(1.0,0.0,0.0,1.0,10.0,26.875)"><text id="ProcessOnText1025" x="24" y="13.325" fill="#000" family="Arial" font-family="Arial" font-size="13" font-style="normal" font-weight="normal" size="13" text-anchor="middle" text-decoration="none">END</text></g></g><g id="ProcessOnG1026" opacity="1" transform="matrix(1.0,0.0,0.0,1.0,540.0,321.3333333333332)"><path id="ProcessOnPath1027" fill="none" stroke="none" stroke-dasharray="none" stroke-width="0" d="M0.0 0.0L100.0 0.0L100.0 49.0L0.0 49.0Z" opacity="1"/><g id="ProcessOnG1028" transform="matrix(1.0,0.0,0.0,1.0,0.0,16.375)"><text id="ProcessOnText1029" x="49" y="13.325" fill="#000" family="Arial" font-family="Arial" font-size="13" font-style="normal" font-weight="normal" size="13" text-anchor="middle" text-decoration="none">NO</text></g></g><g id="ProcessOnG1030" opacity="1" transform="matrix(1.0,0.0,0.0,1.0,383.0,411.3333333333335)"><path id="ProcessOnPath1031" fill="none" stroke="none" stroke-dasharray="none" stroke-width="0" d="M0.0 0.0L100.0 0.0L100.0 49.0L0.0 49.0Z" opacity="1"/><g id="ProcessOnG1032" transform="matrix(1.0,0.0,0.0,1.0,0.0,16.375)"><text id="ProcessOnText1033" x="49" y="13.325" fill="#000" family="Arial" font-family="Arial" font-size="13" font-style="normal" font-weight="normal" size="13" text-anchor="middle" text-decoration="none">YES</text></g></g><g id="ProcessOnG1034"><path id="ProcessOnPath1035" fill="none" stroke="#323232" stroke-dasharray="none" stroke-width="2" marker-end="url(#ProcessOnMarker1036)" d="M453.0 407.3333333333335L453.0 442.3333333333336L453.0 442.3333333333336L453.0 462.0972653558338"/></g><g id="ProcessOnG1038" opacity="1" transform="matrix(1.0,0.0,0.0,1.0,403.0,477.3333333333336)"><path id="ProcessOnPath1039" fill="#fff" stroke="#323232" stroke-dasharray="none" stroke-width="2" d="M0.0 0.0L100.0 0.0L100.0 70.0L0.0 70.0Z" opacity="1"/><g id="ProcessOnG1040" transform="matrix(1.0,0.0,0.0,1.0,10.0,26.875)"><text id="ProcessOnText1041" x="39" y="13.325" fill="#000" family="Arial" font-family="Arial" font-size="13" font-style="normal" font-weight="normal" size="13" text-anchor="middle" text-decoration="none">Create Order</text></g></g><g id="ProcessOnG1042"><path id="ProcessOnPath1043" fill="none" stroke="#323232" stroke-dasharray="none" stroke-width="2" marker-end="url(#ProcessOnMarker1044)" d="M453.0 547.3333333333336L453.0 581.3333333333336L453.0 581.3333333333336L453.0 600.0972653558338"/></g><g id="ProcessOnG1046" opacity="1" transform="matrix(1.0,0.0,0.0,1.0,403.0,615.3333333333336)"><path id="ProcessOnPath1047" fill="#fff" stroke="#323232" stroke-dasharray="none" stroke-width="2" d="M0.0 0.0L100.0 0.0L100.0 70.0L0.0 70.0Z" opacity="1"/><g id="ProcessOnG1048" transform="matrix(1.0,0.0,0.0,1.0,10.0,26.875)"><text id="ProcessOnText1049" x="39" y="13.325" fill="#000" family="Arial" font-family="Arial" font-size="13" font-style="normal" font-weight="normal" size="13" text-anchor="middle" text-decoration="none">delegatebw</text></g></g><g id="ProcessOnG1050"><path id="ProcessOnPath1051" fill="none" stroke="#323232" stroke-dasharray="none" stroke-width="2" marker-end="url(#ProcessOnMarker1052)" d="M453.0 685.3333333333336L453.0 765.166666666667L453.0 765.166666666667L453.0 829.7639320225004"/></g><g id="ProcessOnG1054" opacity="1" transform="matrix(1.0,0.0,0.0,1.0,369.12345679012344,987.5555555555558)"><path id="ProcessOnPath1055" fill="#fff" stroke="#323232" stroke-dasharray="none" stroke-width="2" d="M0.0 43.5L84.0 0.0L168.0 43.5L84.0 87.0L0.0 43.5Z" opacity="1"/><g id="ProcessOnG1056" transform="matrix(1.0,0.0,0.0,1.0,10.0,35.375)"><text id="ProcessOnText1057" x="73" y="13.325" fill="#000" family="Arial" font-family="Arial" font-size="13" font-style="normal" font-weight="normal" size="13" text-anchor="middle" text-decoration="none">Free Plan?</text></g></g><g id="ProcessOnG1058"><path id="ProcessOnPath1059" fill="none" stroke="#323232" stroke-dasharray="none" stroke-width="2" marker-end="url(#ProcessOnMarker1060)" d="M537.1234567901234 1031.0555555555554L590.0617283950617 1031.0555555555554L590.0617283950617 1030.5L627.7639320225002 1030.5"/></g><g id="ProcessOnG1062" opacity="1" transform="matrix(1.0,0.0,0.0,1.0,534.0,988.9999999999999)"><path id="ProcessOnPath1063" fill="none" stroke="none" stroke-dasharray="none" stroke-width="0" d="M0.0 0.0L100.0 0.0L100.0 49.0L0.0 49.0Z" opacity="1"/><g id="ProcessOnG1064" transform="matrix(1.0,0.0,0.0,1.0,0.0,16.375)"><text id="ProcessOnText1065" x="49" y="13.325" fill="#000" family="Arial" font-family="Arial" font-size="13" font-style="normal" font-weight="normal" size="13" text-anchor="middle" text-decoration="none">YES</text></g></g><g id="ProcessOnG1066" opacity="1" transform="matrix(1.0,0.0,0.0,1.0,643.0,995.5000000000001)"><path id="ProcessOnPath1067" fill="#fff" stroke="#323232" stroke-dasharray="none" stroke-width="2" d="M0.0 0.0L100.0 0.0L100.0 70.0L0.0 70.0Z" opacity="1"/><g id="ProcessOnG1068" transform="matrix(1.0,0.0,0.0,1.0,10.0,26.875)"><text id="ProcessOnText1069" x="39" y="13.325" fill="#000" family="Arial" font-family="Arial" font-size="13" font-style="normal" font-weight="normal" size="13" text-anchor="middle" text-decoration="none">Auto Refund</text></g></g><g id="ProcessOnG1070"><path id="ProcessOnPath1071" fill="none" stroke="#323232" stroke-dasharray="none" stroke-width="2" marker-end="url(#ProcessOnMarker1072)" d="M453.12345679012344 1074.5555555555554L453.12345679012344 1133.2777777777774L453.0 1133.2777777777774L453.0 1176.7639320224998"/></g><g id="ProcessOnG1074" opacity="1" transform="matrix(1.0,0.0,0.0,1.0,403.0,1191.9999999999995)"><path id="ProcessOnPath1075" fill="#fff" stroke="#323232" stroke-dasharray="none" stroke-width="2" d="M0.0 0.0L100.0 0.0L100.0 70.0L0.0 70.0Z" opacity="1"/><g id="ProcessOnG1076" transform="matrix(1.0,0.0,0.0,1.0,10.0,10.625)"><text id="ProcessOnText1077" x="39" y="13.325" fill="#000" family="Arial" font-family="Arial" font-size="13" font-style="normal" font-weight="normal" size="13" text-anchor="middle" text-decoration="none">Deferred</text><text id="ProcessOnText1078" x="39" y="29.575" fill="#000" family="Arial" font-family="Arial" font-size="13" font-style="normal" font-weight="normal" size="13" text-anchor="middle" text-decoration="none">expireorder</text><text id="ProcessOnText1079" x="39" y="45.825" fill="#000" family="Arial" font-family="Arial" font-size="13" font-style="normal" font-weight="normal" size="13" text-anchor="middle" text-decoration="none">action</text></g></g><g id="ProcessOnG1080"><path id="ProcessOnPath1081" fill="none" stroke="#323232" stroke-dasharray="none" stroke-width="2" marker-end="url(#ProcessOnMarker1082)" d="M693.0 1065.5L693.0 1226.9999999999995L518.2360679774998 1226.9999999999995"/></g><g id="ProcessOnG1084" opacity="1" transform="matrix(1.0,0.0,0.0,1.0,148.0,617.3333333333336)"><path id="ProcessOnPath1085" fill="#fff" stroke="#323232" stroke-dasharray="none" stroke-width="2" d="M0.0 0.0L100.0 0.0L0.0 0.0M0.0 70.0L100.0 70.0L0.0 70.0Z" opacity="1"/><path id="ProcessOnPath1086" fill="none" stroke="none" stroke-dasharray="none" stroke-width="0" d="M0.0 0.0L100.0 0.0L100.0 70.0L0.0 70.0L0.0 0.0Z" opacity="1"/><g id="ProcessOnG1087" transform="matrix(1.0,0.0,0.0,1.0,10.0,18.75)"><text id="ProcessOnText1088" x="39" y="13.325" fill="#000" family="Arial" font-family="Arial" font-size="13" font-style="normal" font-weight="normal" size="13" text-anchor="middle" text-decoration="none">Creditor</text><text id="ProcessOnText1089" x="39" y="29.575" fill="#000" family="Arial" font-family="Arial" font-size="13" font-style="normal" font-weight="normal" size="13" text-anchor="middle" text-decoration="none">Table</text></g></g><g id="ProcessOnG1090" opacity="1" transform="matrix(1.0,0.0,0.0,1.0,148.0,328.8333333333332)"><path id="ProcessOnPath1091" fill="#fff" stroke="#323232" stroke-dasharray="none" stroke-width="2" d="M0.0 0.0L100.0 0.0L0.0 0.0M0.0 70.0L100.0 70.0L0.0 70.0Z" opacity="1"/><path id="ProcessOnPath1092" fill="none" stroke="none" stroke-dasharray="none" stroke-width="0" d="M0.0 0.0L100.0 0.0L100.0 70.0L0.0 70.0L0.0 0.0Z" opacity="1"/><g id="ProcessOnG1093" transform="matrix(1.0,0.0,0.0,1.0,10.0,26.875)"><text id="ProcessOnText1094" x="39" y="13.325" fill="#000" family="Arial" font-family="Arial" font-size="13" font-style="normal" font-weight="normal" size="13" text-anchor="middle" text-decoration="none">Plan Table</text></g></g><g id="ProcessOnG1095"><path id="ProcessOnPath1096" fill="none" stroke="#323232" stroke-dasharray="none" stroke-width="2" marker-end="url(#ProcessOnMarker1097)" d="M257.0 652.8333333333336L324.5 652.8333333333336L324.5 652.8333333333336L376.7639320225002 652.8333333333336"/></g><g id="ProcessOnG1099"><path id="ProcessOnPath1100" fill="none" stroke="#323232" stroke-dasharray="none" stroke-width="2" marker-end="url(#ProcessOnMarker1101)" d="M257.0 363.8333333333333L310.0 363.8333333333333L310.0 363.8333333333333L347.7639320225002 363.8333333333333"/></g><g id="ProcessOnG1103"><path id="ProcessOnPath1104" fill="none" stroke="#323232" stroke-dasharray="none" stroke-width="2" marker-end="url(#ProcessOnMarker1105)" d="M453.0 1261.9999999999995L453.0 1289.9999999999995L453.0 1289.9999999999995L453.0 1302.7639320224998"/></g><g id="ProcessOnG1107" opacity="1" transform="matrix(1.0,0.0,0.0,1.0,402.0,1318.9999999999995)"><path id="ProcessOnPath1108" fill="none" stroke="none" stroke-dasharray="none" stroke-width="0" d="M0.0 0.0L100.0 0.0L100.0 49.0L0.0 49.0Z" opacity="1"/><g id="ProcessOnG1109" transform="matrix(1.0,0.0,0.0,1.0,0.0,16.375)"><text id="ProcessOnText1110" x="49" y="13.325" fill="#000" family="Arial" font-family="Arial" font-size="13" font-style="normal" font-weight="normal" size="13" text-anchor="middle" text-decoration="none">order expired</text></g></g><g id="ProcessOnG1111"><path id="ProcessOnPath1112" fill="none" stroke="#323232" stroke-dasharray="none" stroke-width="2" marker-end="url(#ProcessOnMarker1113)" d="M453.0 1361.9999999999995L453.0 1389.9999999999995L453.0 1389.9999999999995L453.0 1402.7639320224998"/></g><g id="ProcessOnG1115" opacity="1" transform="matrix(1.0,0.0,0.0,1.0,402.0,1422.9999999999995)"><path id="ProcessOnPath1116" fill="#fff" stroke="#323232" stroke-dasharray="none" stroke-width="2" d="M0.0 0.0L100.0 0.0L100.0 70.0L0.0 70.0Z" opacity="1"/><g id="ProcessOnG1117" transform="matrix(1.0,0.0,0.0,1.0,10.0,26.875)"><text id="ProcessOnText1118" x="39" y="13.325" fill="#000" family="Arial" font-family="Arial" font-size="13" font-style="normal" font-weight="normal" size="13" text-anchor="middle" text-decoration="none">undelegate</text></g></g><g id="ProcessOnG1119" opacity="1" transform="matrix(1.0,0.0,0.0,1.0,368.0,1645.222222222222)"><path id="ProcessOnPath1120" fill="#fff" stroke="#323232" stroke-dasharray="none" stroke-width="2" d="M0.0 43.5L84.0 0.0L168.0 43.5L84.0 87.0L0.0 43.5Z" opacity="1"/><g id="ProcessOnG1121" transform="matrix(1.0,0.0,0.0,1.0,10.0,35.375)"><text id="ProcessOnText1122" x="73" y="13.325" fill="#000" family="Arial" font-family="Arial" font-size="13" font-style="normal" font-weight="normal" size="13" text-anchor="middle" text-decoration="none">Free Order?</text></g></g><g id="ProcessOnG1123"><path id="ProcessOnPath1124" fill="none" stroke="#323232" stroke-dasharray="none" stroke-width="2" marker-end="url(#ProcessOnMarker1125)" d="M452.0 1492.9999999999995L452.0 1569.1111111111109L452.0 1569.1111111111109L452.0 1629.9861542447222"/></g><g id="ProcessOnG1127" opacity="1" transform="matrix(1.0,0.0,0.0,1.0,534.0,1637.222222222222)"><path id="ProcessOnPath1128" fill="none" stroke="none" stroke-dasharray="none" stroke-width="0" d="M0.0 0.0L100.0 0.0L100.0 49.0L0.0 49.0Z" opacity="1"/><g id="ProcessOnG1129" transform="matrix(1.0,0.0,0.0,1.0,0.0,16.375)"><text id="ProcessOnText1130" x="49" y="13.325" fill="#000" family="Arial" font-family="Arial" font-size="13" font-style="normal" font-weight="normal" size="13" text-anchor="middle" text-decoration="none">YES</text></g></g><g id="ProcessOnG1131"><path id="ProcessOnPath1132" fill="none" stroke="#323232" stroke-dasharray="none" stroke-width="2" marker-end="url(#ProcessOnMarker1133)" d="M536.0 1688.722222222222L589.5 1688.722222222222L589.5 1688.722222222222L627.7639320225002 1688.722222222222"/></g><g id="ProcessOnG1135" opacity="1" transform="matrix(1.0,0.0,0.0,1.0,643.0,1653.722222222222)"><path id="ProcessOnPath1136" fill="#fff" stroke="#323232" stroke-dasharray="none" stroke-width="2" d="M0.0 35.0C0.0 -11.666666666666666 70.0 -11.666666666666666 70.0 35.0C70.0 81.66666666666667 0.0 81.66666666666667 0.0 35.0Z" opacity="1"/><g id="ProcessOnG1137" transform="matrix(1.0,0.0,0.0,1.0,10.0,26.875)"><text id="ProcessOnText1138" x="24" y="13.325" fill="#000" family="Arial" font-family="Arial" font-size="13" font-style="normal" font-weight="normal" size="13" text-anchor="middle" text-decoration="none">END</text></g></g><g id="ProcessOnG1139"><path id="ProcessOnPath1140" fill="none" stroke="#323232" stroke-dasharray="none" stroke-width="2" marker-end="url(#ProcessOnMarker1141)" d="M452.0 1732.222222222222L452.0 1771.222222222222L452.0 1771.222222222222L452.0 1794.9861542447222"/></g><g id="ProcessOnG1143" opacity="1" transform="matrix(1.0,0.0,0.0,1.0,383.0,1736.222222222222)"><path id="ProcessOnPath1144" fill="none" stroke="none" stroke-dasharray="none" stroke-width="0" d="M0.0 0.0L100.0 0.0L100.0 49.0L0.0 49.0Z" opacity="1"/><g id="ProcessOnG1145" transform="matrix(1.0,0.0,0.0,1.0,0.0,16.375)"><text id="ProcessOnText1146" x="49" y="13.325" fill="#000" family="Arial" font-family="Arial" font-size="13" font-style="normal" font-weight="normal" size="13" text-anchor="middle" text-decoration="none">NO</text></g></g><g id="ProcessOnG1147" opacity="1" transform="matrix(1.0,0.0,0.0,1.0,403.1111111111111,1777.333333333334)"><path id="ProcessOnPath1148" fill="#fff" stroke="#323232" stroke-dasharray="none" stroke-width="2" d="M0.0 0.0L100.0 0.0L100.0 70.0L0.0 70.0Z" opacity="1"/><g id="ProcessOnG1149" transform="matrix(1.0,0.0,0.0,1.0,10.0,10.625)"><text id="ProcessOnText1150" x="39" y="13.325" fill="#000" family="Arial" font-family="Arial" font-size="13" font-style="normal" font-weight="normal" size="13" text-anchor="middle" text-decoration="none">Transfer</text><text id="ProcessOnText1151" x="39" y="29.575" fill="#000" family="Arial" font-family="Arial" font-size="13" font-style="normal" font-weight="normal" size="13" text-anchor="middle" text-decoration="none">income to</text><text id="ProcessOnText1152" x="39" y="45.825" fill="#000" family="Arial" font-family="Arial" font-size="13" font-style="normal" font-weight="normal" size="13" text-anchor="middle" text-decoration="none">MaskTransfer</text></g></g><g id="ProcessOnG1153"><path id="ProcessOnPath1154" fill="none" stroke="#323232" stroke-dasharray="none" stroke-width="2" marker-end="url(#ProcessOnMarker1155)" d="M453.1111111111111 1847.333333333334L453.1111111111111 1926.8888888888894L452.0 1926.8888888888894L452.0 1991.208376466945"/></g><g id="ProcessOnG1157" opacity="1" transform="matrix(1.0,0.0,0.0,1.0,417.0,2006.4444444444448)"><path id="ProcessOnPath1158" fill="#fff" stroke="#323232" stroke-dasharray="none" stroke-width="2" d="M0.0 35.0C0.0 -11.666666666666666 70.0 -11.666666666666666 70.0 35.0C70.0 81.66666666666667 0.0 81.66666666666667 0.0 35.0Z" opacity="1"/><g id="ProcessOnG1159" transform="matrix(1.0,0.0,0.0,1.0,10.0,26.875)"><text id="ProcessOnText1160" x="24" y="13.325" fill="#000" family="Arial" font-family="Arial" font-size="13" font-style="normal" font-weight="normal" size="13" text-anchor="middle" text-decoration="none">END</text></g></g><g id="ProcessOnG1161" opacity="1" transform="matrix(1.0,0.0,0.0,1.0,148.0,477.3333333333336)"><path id="ProcessOnPath1162" fill="#fff" stroke="#323232" stroke-dasharray="none" stroke-width="2" d="M0.0 0.0L100.0 0.0L0.0 0.0M0.0 70.0L100.0 70.0L0.0 70.0Z" opacity="1"/><path id="ProcessOnPath1163" fill="none" stroke="none" stroke-dasharray="none" stroke-width="0" d="M0.0 0.0L100.0 0.0L100.0 70.0L0.0 70.0L0.0 0.0Z" opacity="1"/><g id="ProcessOnG1164" transform="matrix(1.0,0.0,0.0,1.0,10.0,26.875)"><text id="ProcessOnText1165" x="39" y="13.325" fill="#000" family="Arial" font-family="Arial" font-size="13" font-style="normal" font-weight="normal" size="13" text-anchor="middle" text-decoration="none">Order Table</text></g></g><g id="ProcessOnG1166"><path id="ProcessOnPath1167" fill="none" stroke="#323232" stroke-dasharray="none" stroke-width="2" marker-end="url(#ProcessOnMarker1168)" d="M403.0 512.3333333333336L341.5 512.3333333333336L341.5 512.3333333333336L295.2360679774998 512.3333333333336"/></g><g id="ProcessOnG1170" opacity="1" transform="matrix(1.0,0.0,0.0,1.0,292.0,471.3333333333336)"><path id="ProcessOnPath1171" fill="none" stroke="none" stroke-dasharray="none" stroke-width="0" d="M0.0 0.0L100.0 0.0L100.0 49.0L0.0 49.0Z" opacity="1"/><g id="ProcessOnG1172" transform="matrix(1.0,0.0,0.0,1.0,0.0,16.375)"><text id="ProcessOnText1173" x="49" y="13.325" fill="#000" family="Arial" font-family="Arial" font-size="13" font-style="normal" font-weight="normal" size="13" text-anchor="middle" text-decoration="none">CREATE</text></g></g><g id="ProcessOnG1174" opacity="1" transform="matrix(1.0,0.0,0.0,1.0,140.5,30.333333333333357)"><path id="ProcessOnPath1175" fill="none" stroke="none" stroke-dasharray="none" stroke-width="0" d="M0.0 0.0L623.0 0.0L623.0 88.0L0.0 88.0Z" opacity="1"/><g id="ProcessOnG1176" transform="matrix(1.0,0.0,0.0,1.0,0.0,19.0)"><text id="ProcessOnText1177" x="310.5" y="41" fill="#000" family="Arial" font-family="Arial" font-size="40" font-style="normal" font-weight="normal" size="40" text-anchor="middle" text-decoration="none">Order Process of BankofStaked</text></g></g><g id="ProcessOnG1178" opacity="1" transform="matrix(1.0,0.0,0.0,1.0,537.5,118.33333333333337)"><path id="ProcessOnPath1179" fill="none" stroke="none" stroke-dasharray="none" stroke-width="0" d="M0.0 0.0L257.5 0.0L257.5 39.0L0.0 39.0Z" opacity="1"/><g id="ProcessOnG1180" transform="matrix(1.0,0.0,0.0,1.0,0.0,7.0)"><text id="ProcessOnText1181" x="127.75" y="20.5" fill="#000" family="Arial" font-family="Arial" font-size="20" font-style="normal" font-weight="normal" size="20" text-anchor="middle" text-decoration="none">by EOSLaoMao</text></g></g><g id="ProcessOnG1182" opacity="1" transform="matrix(1.0,0.0,0.0,1.0,262.0,326.3333333333332)"><path id="ProcessOnPath1183" fill="none" stroke="none" stroke-dasharray="none" stroke-width="0" d="M0.0 0.0L100.0 0.0L100.0 49.0L0.0 49.0Z" opacity="1"/><g id="ProcessOnG1184" transform="matrix(1.0,0.0,0.0,1.0,0.0,16.375)"><text id="ProcessOnText1185" x="49" y="13.325" fill="#000" family="Arial" font-family="Arial" font-size="13" font-style="normal" font-weight="normal" size="13" text-anchor="middle" text-decoration="none">Match Plan</text></g></g><g id="ProcessOnG1186" opacity="1" transform="matrix(1.0,0.0,0.0,1.0,273.0,615.3333333333336)"><path id="ProcessOnPath1187" fill="none" stroke="none" stroke-dasharray="none" stroke-width="0" d="M0.0 0.0L100.0 0.0L100.0 49.0L0.0 49.0Z" opacity="1"/><g id="ProcessOnG1188" transform="matrix(1.0,0.0,0.0,1.0,0.0,16.375)"><text id="ProcessOnText1189" x="49" y="13.325" fill="#000" family="Arial" font-family="Arial" font-size="13" font-style="normal" font-weight="normal" size="13" text-anchor="middle" text-decoration="none">Active Creditor</text></g></g><g id="ProcessOnG1190" opacity="1" transform="matrix(1.0,0.0,0.0,1.0,402.0,1522.9999999999995)"><path id="ProcessOnPath1191" fill="#fff" stroke="#323232" stroke-dasharray="none" stroke-width="2" d="M0.0 0.0L100.0 0.0L100.0 70.0L0.0 70.0Z" opacity="1"/><g id="ProcessOnG1192" transform="matrix(1.0,0.0,0.0,1.0,10.0,26.875)"><text id="ProcessOnText1193" x="39" y="13.325" fill="#000" family="Arial" font-family="Arial" font-size="13" font-style="normal" font-weight="normal" size="13" text-anchor="middle" text-decoration="none">expireorder</text></g></g><g id="ProcessOnG1194" opacity="1" transform="matrix(1.0,0.0,0.0,1.0,148.0,1509.9999999999995)"><path id="ProcessOnPath1195" fill="#fff" stroke="#323232" stroke-dasharray="none" stroke-width="2" d="M0.0 0.0L100.0 0.0L0.0 0.0M0.0 40.0L100.0 40.0L0.0 40.0Z" opacity="1"/><path id="ProcessOnPath1196" fill="none" stroke="none" stroke-dasharray="none" stroke-width="0" d="M0.0 0.0L100.0 0.0L100.0 40.0L0.0 40.0L0.0 0.0Z" opacity="1"/><g id="ProcessOnG1197" transform="matrix(1.0,0.0,0.0,1.0,10.0,11.875)"><text id="ProcessOnText1198" x="39" y="13.325" fill="#000" family="Arial" font-family="Arial" font-size="13" font-style="normal" font-weight="normal" size="13" text-anchor="middle" text-decoration="none">Order Table</text></g></g><g id="ProcessOnG1199"><path id="ProcessOnPath1200" fill="none" stroke="#323232" stroke-dasharray="none" stroke-width="2" marker-end="url(#ProcessOnMarker1201)" d="M403.0 1538.9999999999995L341.5 1538.9999999999995L341.5 1538.9999999999995L295.2360679774998 1538.9999999999995"/></g><g id="ProcessOnG1203" opacity="1" transform="matrix(1.0,0.0,0.0,1.0,292.0,1497.9999999999995)"><path id="ProcessOnPath1204" fill="none" stroke="none" stroke-dasharray="none" stroke-width="0" d="M0.0 0.0L100.0 0.0L100.0 49.0L0.0 49.0Z" opacity="1"/><g id="ProcessOnG1205" transform="matrix(1.0,0.0,0.0,1.0,0.0,16.375)"><text id="ProcessOnText1206" x="49" y="13.325" fill="#000" family="Arial" font-family="Arial" font-size="13" font-style="normal" font-weight="normal" size="13" text-anchor="middle" text-decoration="none">DELETE</text></g></g><g id="ProcessOnG1207" opacity="1" transform="matrix(1.0,0.0,0.0,1.0,148.0,1559.9999999999995)"><path id="ProcessOnPath1208" fill="#fff" stroke="#323232" stroke-dasharray="none" stroke-width="2" d="M0.0 0.0L100.0 0.0L0.0 0.0M0.0 40.0L100.0 40.0L0.0 40.0Z" opacity="1"/><path id="ProcessOnPath1209" fill="none" stroke="none" stroke-dasharray="none" stroke-width="0" d="M0.0 0.0L100.0 0.0L100.0 40.0L0.0 40.0L0.0 0.0Z" opacity="1"/><g id="ProcessOnG1210" transform="matrix(1.0,0.0,0.0,1.0,10.0,11.875)"><text id="ProcessOnText1211" x="39" y="13.325" fill="#000" family="Arial" font-family="Arial" font-size="13" font-style="normal" font-weight="normal" size="13" text-anchor="middle" text-decoration="none">History Table</text></g></g><g id="ProcessOnG1212"><path id="ProcessOnPath1213" fill="none" stroke="#323232" stroke-dasharray="none" stroke-width="2" marker-end="url(#ProcessOnMarker1214)" d="M403.0 1568.9999999999995L341.5 1568.9999999999995L341.5 1568.9999999999995L295.2360679774998 1568.9999999999995"/></g><g id="ProcessOnG1216" opacity="1" transform="matrix(1.0,0.0,0.0,1.0,292.0,1560.2222222222217)"><path id="ProcessOnPath1217" fill="none" stroke="none" stroke-dasharray="none" stroke-width="0" d="M0.0 0.0L100.0 0.0L100.0 49.0L0.0 49.0Z" opacity="1"/><g id="ProcessOnG1218" transform="matrix(1.0,0.0,0.0,1.0,0.0,16.375)"><text id="ProcessOnText1219" x="49" y="13.325" fill="#000" family="Arial" font-family="Arial" font-size="13" font-style="normal" font-weight="normal" size="13" text-anchor="middle" text-decoration="none">CREATE</text></g></g><g id="ProcessOnG1220" opacity="1" transform="matrix(1.0,0.0,0.0,1.0,403.0,852.0000000000002)"><path id="ProcessOnPath1221" fill="#fff" stroke="#323232" stroke-dasharray="none" stroke-width="2" d="M0.0 0.0L100.0 0.0L100.0 70.0L0.0 70.0Z" opacity="1"/><g id="ProcessOnG1222" transform="matrix(1.0,0.0,0.0,1.0,10.0,26.875)"><text id="ProcessOnText1223" x="39" y="13.325" fill="#000" family="Arial" font-family="Arial" font-size="13" font-style="normal" font-weight="normal" size="13" text-anchor="middle" text-decoration="none">check</text></g></g><g id="ProcessOnG1224"><path id="ProcessOnPath1225" fill="none" stroke="#323232" stroke-dasharray="none" stroke-width="2" marker-end="url(#ProcessOnMarker1226)" d="M453.0 922.0000000000002L453.0 953.5000000000001L453.0 953.5000000000001L453.0 969.7639320225001"/></g><g id="ProcessOnG1228" opacity="1" transform="matrix(1.0,0.0,0.0,1.0,589.0,786.5000000000002)"><path id="ProcessOnPath1229" fill="none" stroke="#323232" stroke-dasharray="none" stroke-width="2" d="M18.0 0.0Q9.0 0.0 9.0 9.0L9.0 91.5Q9.0 100.5 0.0 100.5Q9.0 100.5 9.0 109.5L9.0 192.0Q9.0 201.0 18.0 201.0" opacity="1"/><path id="ProcessOnPath1230" fill="none" stroke="#323232" stroke-dasharray="none" stroke-width="2" d="M207.0 201.0Q216.0 201.0 216.0 192.0L216.0 109.5Q216.0 100.5 225.0 100.5Q216.0 100.5 216.0 91.5L216.0 9.0Q216.0 0.0 207.0 0.0" opacity="1"/><path id="ProcessOnPath1231" fill="none" stroke="none" stroke-dasharray="none" stroke-width="0" d="M0.0 0.0L225.0 0.0L225.0 201.0L0.0 201.0Z" opacity="1"/></g><g id="ProcessOnG1232"><path id="ProcessOnPath1233" fill="none" stroke="#323232" stroke-dasharray="none" stroke-width="2" marker-end="url(#ProcessOnMarker1234)" d="M503.0 887.0000000000002L543.5 887.0000000000002L543.5 887.0000000000002L568.7639320225002 887.0000000000002"/></g><g id="ProcessOnG1236" opacity="1" transform="matrix(1.0,0.0,0.0,1.0,634.0,789.0000000000002)"><path id="ProcessOnPath1237" fill="none" stroke="none" stroke-dasharray="none" stroke-width="0" d="M0.0 0.0L140.5 0.0L140.5 49.0L0.0 49.0Z" opacity="1"/><g id="ProcessOnG1238" transform="matrix(1.0,0.0,0.0,1.0,0.0,16.375)"><text id="ProcessOnText1239" x="69.25" y="13.325" fill="#000" family="Arial" font-family="Arial" font-size="13" font-style="normal" font-weight="normal" size="13" text-anchor="middle" text-decoration="none">Expire due orders</text></g></g><g id="ProcessOnG1240" opacity="1" transform="matrix(1.0,0.0,0.0,1.0,634.0,829.0000000000002)"><path id="ProcessOnPath1241" fill="none" stroke="none" stroke-dasharray="none" stroke-width="0" d="M0.0 0.0L140.5 0.0L140.5 49.0L0.0 49.0Z" opacity="1"/><g id="ProcessOnG1242" transform="matrix(1.0,0.0,0.0,1.0,0.0,16.375)"><text id="ProcessOnText1243" x="69.25" y="13.325" fill="#000" family="Arial" font-family="Arial" font-size="13" font-style="normal" font-weight="normal" size="13" text-anchor="middle" text-decoration="none">Creditor rotation</text></g></g><g id="ProcessOnG1244" opacity="1" transform="matrix(1.0,0.0,0.0,1.0,634.0,868.0000000000002)"><path id="ProcessOnPath1245" fill="none" stroke="none" stroke-dasharray="none" stroke-width="0" d="M0.0 0.0L140.5 0.0L140.5 49.0L0.0 49.0Z" opacity="1"/><g id="ProcessOnG1246" transform="matrix(1.0,0.0,0.0,1.0,0.0,16.375)"><text id="ProcessOnText1247" x="69.25" y="13.325" fill="#000" family="Arial" font-family="Arial" font-size="13" font-style="normal" font-weight="normal" size="13" text-anchor="middle" text-decoration="none">Expire Freelock</text></g></g><g id="ProcessOnG1248" opacity="1" transform="matrix(1.0,0.0,0.0,1.0,634.0,908.0000000000002)"><path id="ProcessOnPath1249" fill="none" stroke="none" stroke-dasharray="none" stroke-width="0" d="M0.0 0.0L140.5 0.0L140.5 49.0L0.0 49.0Z" opacity="1"/><g id="ProcessOnG1250" transform="matrix(1.0,0.0,0.0,1.0,0.0,16.375)"><text id="ProcessOnText1251" x="69.25" y="13.325" fill="#000" family="Arial" font-family="Arial" font-size="13" font-style="normal" font-weight="normal" size="13" text-anchor="middle" text-decoration="none">......</text></g></g><g id="ProcessOnG1252" opacity="1" transform="matrix(1.0,0.0,0.0,1.0,640.7777777777778,1104.388888888889)"><path id="ProcessOnPath1253" fill="#fff" stroke="#323232" stroke-dasharray="none" stroke-width="2" d="M0.0 0.0L100.0 0.0L100.0 70.0L0.0 70.0Z" opacity="1"/><g id="ProcessOnG1254" transform="matrix(1.0,0.0,0.0,1.0,10.0,26.875)"><text id="ProcessOnText1255" x="39" y="13.325" fill="#000" family="Arial" font-family="Arial" font-size="13" font-style="normal" font-weight="normal" size="13" text-anchor="middle" text-decoration="none">Add Freelock</text></g></g><g id="ProcessOnG1256" opacity="1" transform="matrix(1.0,0.0,0.0,1.0,403.1111111111111,1881.777777777778)"><path id="ProcessOnPath1257" fill="#fff" stroke="#323232" stroke-dasharray="none" stroke-width="2" d="M0.0 0.0L100.0 0.0L100.0 70.0L0.0 70.0Z" opacity="1"/><g id="ProcessOnG1258" transform="matrix(1.0,0.0,0.0,1.0,10.0,10.625)"><text id="ProcessOnText1259" x="39" y="13.325" fill="#000" family="Arial" font-family="Arial" font-size="13" font-style="normal" font-weight="normal" size="13" text-anchor="middle" text-decoration="none">MaskTransfer</text><text id="ProcessOnText1260" x="39" y="29.575" fill="#000" family="Arial" font-family="Arial" font-size="13" font-style="normal" font-weight="normal" size="13" text-anchor="middle" text-decoration="none">to</text><text id="ProcessOnText1261" x="39" y="45.825" fill="#000" family="Arial" font-family="Arial" font-size="13" font-style="normal" font-weight="normal" size="13" text-anchor="middle" text-decoration="none">creditor</text></g></g><g id="ProcessOnG1262" opacity="1" transform="matrix(1.0,0.0,0.0,1.0,646.3333333333329,328.32098765432096)"><path id="ProcessOnPath1263" fill="#fff" stroke="#323232" stroke-dasharray="none" stroke-width="2" d="M0.0 0.0L100.0 0.0L100.0 70.0L0.0 70.0Z" opacity="1"/><g id="ProcessOnG1264" transform="matrix(1.0,0.0,0.0,1.0,10.0,18.75)"><text id="ProcessOnText1265" x="39" y="13.325" fill="#000" family="Arial" font-family="Arial" font-size="13" font-style="normal" font-weight="normal" size="13" text-anchor="middle" text-decoration="none">Transfer</text><text id="ProcessOnText1266" x="39" y="29.575" fill="#000" family="Arial" font-family="Arial" font-size="13" font-style="normal" font-weight="normal" size="13" text-anchor="middle" text-decoration="none">Failed</text></g></g><g id="ProcessOnG1267"><path id="ProcessOnPath1268" fill="none" stroke="#323232" stroke-dasharray="none" stroke-width="2" marker-end="url(#ProcessOnMarker1269)" d="M745.8888888888885 363.8333333333333L799.2777777777774 363.8333333333333L799.2777777777774 363.8333333333333L837.4305986891665 363.8333333333333"/></g><g id="ProcessOnG1271" opacity="1" transform="matrix(1.0,0.0,0.0,1.0,589.0,546.5000000000002)"><path id="ProcessOnPath1272" fill="none" stroke="#323232" stroke-dasharray="none" stroke-width="2" d="M18.0 0.0Q9.0 0.0 9.0 9.0L9.0 91.5Q9.0 100.5 0.0 100.5Q9.0 100.5 9.0 109.5L9.0 192.0Q9.0 201.0 18.0 201.0" opacity="1"/><path id="ProcessOnPath1273" fill="none" stroke="#323232" stroke-dasharray="none" stroke-width="2" d="M207.0 201.0Q216.0 201.0 216.0 192.0L216.0 109.5Q216.0 100.5 225.0 100.5Q216.0 100.5 216.0 91.5L216.0 9.0Q216.0 0.0 207.0 0.0" opacity="1"/><path id="ProcessOnPath1274" fill="none" stroke="none" stroke-dasharray="none" stroke-width="0" d="M0.0 0.0L225.0 0.0L225.0 201.0L0.0 201.0Z" opacity="1"/></g><g id="ProcessOnG1275" opacity="1" transform="matrix(1.0,0.0,0.0,1.0,634.0,609.0000000000002)"><path id="ProcessOnPath1276" fill="none" stroke="none" stroke-dasharray="none" stroke-width="0" d="M0.0 0.0L140.5 0.0L140.5 49.0L0.0 49.0Z" opacity="1"/><g id="ProcessOnG1277" transform="matrix(1.0,0.0,0.0,1.0,0.0,8.25)"><text id="ProcessOnText1278" x="69.25" y="13.325" fill="#000" family="Arial" font-family="Arial" font-size="13" font-style="normal" font-weight="normal" size="13" text-anchor="middle" text-decoration="none">Using safedelegate to</text><text id="ProcessOnText1279" x="69.25" y="29.575" fill="#000" family="Arial" font-family="Arial" font-size="13" font-style="normal" font-weight="normal" size="13" text-anchor="middle" text-decoration="none">call delegatebw</text></g></g><g id="ProcessOnG1280"><path id="ProcessOnPath1281" fill="none" stroke="#323232" stroke-dasharray="none" stroke-width="2" marker-end="url(#ProcessOnMarker1282)" d="M504.4285714285714 646.9999999999994L544.9285714285713 646.9999999999994L544.9285714285713 646.9999999999994L570.1925034510715 646.9999999999994"/></g></g></g></svg>