<svg xmlns="http://www.w3.org/2000/svg" xmlns:xlink="http://www.w3.org/1999/xlink" id="processonSvg1000" width="724" height="983" viewBox="53 -14 724 983"><defs id="ProcessOnDefs1001"><marker id="ProcessOnMarker1019" markerHeight="10.551" markerUnits="userSpaceOnUse" markerWidth="16.236" orient="auto" refX="-1" refY="3.899" viewBox="-1 -1.376 16.236 10.551"><path id="ProcessOnPath1020" fill="#323232" stroke="#323232" stroke-width="2" d="M12.0 3.8990363547948754L0.0 7.798072709589751V0.0Z" transform="matrix(1.0,0.0,0.0,1.0,0.0,0.0)"/></marker><marker id="ProcessOnMarker1027" markerHeight="10.551" markerUnits="userSpaceOnUse" markerWidth="16.236" orient="auto" refX="-1" refY="3.899" viewBox="-1 -1.376 16.236 10.551"><path id="ProcessOnPath1028" fill="#323232" stroke="#323232" stroke-width="2" d="M12.0 3.8990363547948754L0.0 7.798072709589751V0.0Z" transform="matrix(1.0,0.0,0.0,1.0,0.0,0.0)"/></marker><marker id="ProcessOnMarker1040" markerHeight="10.551" markerUnits="userSpaceOnUse" markerWidth="16.236" orient="auto" refX="-1" refY="3.899" viewBox="-1 -1.376 16.236 10.551"><path id="ProcessOnPath1041" fill="#323232" stroke="#323232" stroke-width="2" d="M12.0 3.8990363547948754L0.0 7.798072709589751V0.0Z" transform="matrix(1.0,0.0,0.0,1.0,0.0,0.0)"/></marker><marker id="ProcessOnMarker1049" markerHeight="10.551" markerUnits="userSpaceOnUse" markerWidth="16.236" orient="auto" refX="-1" refY="3.899" viewBox="-1 -1.376 16.236 10.551"><path id="ProcessOnPath1050" fill="#323232" stroke="#323232" stroke-width="2" d="M12.0 3.8990363547948754L0.0 7.798072709589751V0.0Z" transform="matrix(1.0,0.0,0.0,1.0,0.0,0.0)"/></marker><marker id="ProcessOnMarker1057" markerHeight="10.551" markerUnits="userSpaceOnUse" markerWidth="16.236" orient="auto" refX="-1" refY="3.899" viewBox="-1 -1.376 16.236 10.551"><path id="ProcessOnPath1058" fill="#323232" stroke="#323232" stroke-width="2" d="M12.0 3.8990363547948754L0.0 7.798072709589751V0.0Z" transform="matrix(1.0,0.0,0.0,1.0,0.0,0.0)"/></marker><marker id="ProcessOnMarker1061" markerHeight="10.551" markerUnits="userSpaceOnUse" markerWidth="16.236" orient="auto" refX="-1" refY="3.899" viewBox="-1 -1.376 16.236 10.551"><path id="ProcessOnPath1062" fill="#323232" stroke="#323232" stroke-width="2" d="M12.0 3.8990363547948754L0.0 7.798072709589751V0.0Z" transform="matrix(1.0,0.0,0.0,1.0,0.0,0.0)"/></marker></defs><g id="ProcessOnG1002"><path id="ProcessOnPath1003" fill="none" d="M53.0 -14.0H777.0V969.0H53.0V-14.0Z"/><g id="ProcessOnG1004"><g id="ProcessOnG1005" opacity="1" transform="matrix(1.0,0.0,0.0,1.0,339.0,211.0)"><path id="ProcessOnPath1006" fill="#fff" stroke="#323232" stroke-dasharray="none" stroke-width="2" d="M0.0 0.0L100.0 0.0L100.0 70.0L0.0 70.0Z" opacity="1"/><g id="ProcessOnG1007" transform="matrix(1.0,0.0,0.0,1.0,10.0,18.75)"><text id="ProcessOnText1008" x="39" y="13.325" fill="#000" family="Arial" font-family="Arial" font-size="13" font-style="normal" font-weight="normal" size="13" text-anchor="middle" text-decoration="none">Centralized</text><text id="ProcessOnText1009" x="39" y="29.575" fill="#000" family="Arial" font-family="Arial" font-size="13" font-style="normal" font-weight="normal" size="13" text-anchor="middle" text-decoration="none">Server</text></g></g><g id="ProcessOnG1010" opacity="1" transform="matrix(6.123233995736766E-17,1.0,-1.0,6.123233995736766E-17,459.0,122.0)"><path id="ProcessOnPath1011" fill="none" stroke="#323232" stroke-dasharray="none" stroke-width="2" d="M0.0 140.0Q9.0 140.0 9.0 131.0L9.0 79.0Q9.0 70.0 22.0 70.0Q9.0 70.0 9.0 61.0L9.0 9.0Q9.0 0.0 0.0 0.0" opacity="1"/><path id="ProcessOnPath1012" fill="none" stroke="none" stroke-dasharray="none" stroke-width="0" d="M0.0 0.0L100.0 0.0L100.0 140.0L0.0 140.0Z" opacity="1"/></g><g id="ProcessOnG1013" opacity="1" transform="matrix(1.0,0.0,0.0,1.0,321.0,106.0)"><path id="ProcessOnPath1014" fill="none" stroke="none" stroke-dasharray="none" stroke-width="0" d="M0.0 0.0L141.0 0.0L141.0 20.0L0.0 20.0Z" opacity="1"/><g id="ProcessOnG1015" transform="matrix(1.0,0.0,0.0,1.0,0.0,1.875)"><text id="ProcessOnText1016" x="69.5" y="13.325" fill="#000" family="Arial" font-family="Arial" font-size="13" font-style="normal" font-weight="normal" size="13" text-anchor="middle" text-decoration="none">Users run out of CPU</text></g></g><g id="ProcessOnG1017"><path id="ProcessOnPath1018" fill="none" stroke="#323232" stroke-dasharray="none" stroke-width="2" marker-end="url(#ProcessOnMarker1019)" d="M389.0 152.0L389.0 181.5L389.0 181.5L389.0 195.7639320225002"/></g><g id="ProcessOnG1021" opacity="1" transform="matrix(1.0,0.0,0.0,1.0,308.5,332.0)"><path id="ProcessOnPath1022" fill="#fff" stroke="#323232" stroke-dasharray="none" stroke-width="2" d="M0.0 54.5L80.5 0.0L161.0 54.5L80.5 109.0L0.0 54.5Z" opacity="1"/><g id="ProcessOnG1023" transform="matrix(1.0,0.0,0.0,1.0,10.0,46.375)"><text id="ProcessOnText1024" x="69.5" y="13.325" fill="#000" family="Arial" font-family="Arial" font-size="13" font-style="normal" font-weight="normal" size="13" text-anchor="middle" text-decoration="none">CPU run out?</text></g></g><g id="ProcessOnG1025"><path id="ProcessOnPath1026" fill="none" stroke="#323232" stroke-dasharray="none" stroke-width="2" marker-end="url(#ProcessOnMarker1027)" d="M389.0 281.0L389.0 306.5L389.0 306.5L389.0 316.7639320225002"/></g><g id="ProcessOnG1029" opacity="1" transform="matrix(1.0,0.0,0.0,1.0,150.0,351.5)"><path id="ProcessOnPath1030" fill="#fff" stroke="#323232" stroke-dasharray="none" stroke-width="2" d="M0.0 35.0C0.0 -11.666666666666666 70.0 -11.666666666666666 70.0 35.0C70.0 81.66666666666667 0.0 81.66666666666667 0.0 35.0Z" opacity="1"/><g id="ProcessOnG1031" transform="matrix(1.0,0.0,0.0,1.0,10.0,26.875)"><text id="ProcessOnText1032" x="24" y="13.325" fill="#000" family="Arial" font-family="Arial" font-size="13" font-style="normal" font-weight="normal" size="13" text-anchor="middle" text-decoration="none">END</text></g></g><g id="ProcessOnG1033" opacity="1" transform="matrix(1.0,0.0,0.0,1.0,333.5,532.0)"><path id="ProcessOnPath1034" fill="#fff" stroke="#323232" stroke-dasharray="none" stroke-width="2" d="M0.0 0.0L111.0 0.0L111.0 70.0L0.0 70.0Z" opacity="1"/><g id="ProcessOnG1035" transform="matrix(1.0,0.0,0.0,1.0,10.0,18.75)"><text id="ProcessOnText1036" x="44.5" y="13.325" fill="#000" family="Arial" font-family="Arial" font-size="13" font-style="normal" font-weight="normal" size="13" text-anchor="middle" text-decoration="none">Call</text><text id="ProcessOnText1037" x="44.5" y="29.575" fill="#000" family="Arial" font-family="Arial" font-size="13" font-style="normal" font-weight="normal" size="13" text-anchor="middle" text-decoration="none">BankofStaked</text></g></g><g id="ProcessOnG1038"><path id="ProcessOnPath1039" fill="none" stroke="#323232" stroke-dasharray="none" stroke-width="2" marker-end="url(#ProcessOnMarker1040)" d="M389.0 441.0L389.0 486.5L389.0 486.5L389.0 516.7639320225002"/></g><g id="ProcessOnG1042" opacity="1" transform="matrix(1.0,0.0,0.0,1.0,333.5,732.0)"><path id="ProcessOnPath1043" fill="#fff" stroke="#323232" stroke-dasharray="none" stroke-width="2" d="M0.0 0.0L111.0 0.0L111.0 70.0L0.0 70.0Z" opacity="1"/><g id="ProcessOnG1044" transform="matrix(1.0,0.0,0.0,1.0,10.0,18.75)"><text id="ProcessOnText1045" x="44.5" y="13.325" fill="#000" family="Arial" font-family="Arial" font-size="13" font-style="normal" font-weight="normal" size="13" text-anchor="middle" text-decoration="none">User got</text><text id="ProcessOnText1046" x="44.5" y="29.575" fill="#000" family="Arial" font-family="Arial" font-size="13" font-style="normal" font-weight="normal" size="13" text-anchor="middle" text-decoration="none">free CPU</text></g></g><g id="ProcessOnG1047"><path id="ProcessOnPath1048" fill="none" stroke="#323232" stroke-dasharray="none" stroke-width="2" marker-end="url(#ProcessOnMarker1049)" d="M389.0 602.0L389.0 667.0L389.0 667.0L389.0 716.7639320225002"/></g><g id="ProcessOnG1051" opacity="1" transform="matrix(1.0,0.0,0.0,1.0,354.0,879.0)"><path id="ProcessOnPath1052" fill="#fff" stroke="#323232" stroke-dasharray="none" stroke-width="2" d="M0.0 35.0C0.0 -11.666666666666666 70.0 -11.666666666666666 70.0 35.0C70.0 81.66666666666667 0.0 81.66666666666667 0.0 35.0Z" opacity="1"/><g id="ProcessOnG1053" transform="matrix(1.0,0.0,0.0,1.0,10.0,26.875)"><text id="ProcessOnText1054" x="24" y="13.325" fill="#000" family="Arial" font-family="Arial" font-size="13" font-style="normal" font-weight="normal" size="13" text-anchor="middle" text-decoration="none">END</text></g></g><g id="ProcessOnG1055"><path id="ProcessOnPath1056" fill="none" stroke="#323232" stroke-dasharray="none" stroke-width="2" marker-end="url(#ProcessOnMarker1057)" d="M389.0 802.0L389.0 840.5L389.0 840.5L389.0 863.7639320225002"/></g><g id="ProcessOnG1059"><path id="ProcessOnPath1060" fill="none" stroke="#323232" stroke-dasharray="none" stroke-width="2" marker-end="url(#ProcessOnMarker1061)" d="M308.5 386.5L264.25 386.5L264.25 386.5L235.2360679774998 386.5"/></g><g id="ProcessOnG1063" opacity="1" transform="matrix(1.0,0.0,0.0,1.0,439.0,316.5)"><path id="ProcessOnPath1064" fill="none" stroke="#323232" stroke-dasharray="none" stroke-width="2" d="M100.0 0.0Q91.0 0.0 91.0 9.0L91.0 61.0Q91.0 70.0 78.0 70.0Q91.0 70.0 91.0 79.0L91.0 131.0Q91.0 140.0 100.0 140.0" opacity="1"/><path id="ProcessOnPath1065" fill="none" stroke="none" stroke-dasharray="none" stroke-width="0" d="M0.0 0.0L100.0 0.0L100.0 140.0L0.0 140.0Z" opacity="1"/></g><g id="ProcessOnG1066" opacity="1" transform="matrix(1.0,0.0,0.0,1.0,551.0,334.0)"><path id="ProcessOnPath1067" fill="none" stroke="none" stroke-dasharray="none" stroke-width="0" d="M0.0 0.0L138.0 0.0L138.0 105.0L0.0 105.0Z" opacity="1"/><g id="ProcessOnG1068" transform="matrix(1.0,0.0,0.0,1.0,0.0,11.875)"><text id="ProcessOnText1069" x="68" y="13.325" fill="#000" family="Arial" font-family="Arial" font-size="13" font-style="normal" font-weight="normal" size="13" text-anchor="middle" text-decoration="none">AVOID SPAMMING</text><text id="ProcessOnText1071" x="68" y="45.825" fill="#000" family="Arial" font-family="Arial" font-size="13" font-style="normal" font-weight="normal" size="13" text-anchor="middle" text-decoration="none">Determine CPU of</text><text id="ProcessOnText1072" x="68" y="62.075" fill="#000" family="Arial" font-family="Arial" font-size="13" font-style="normal" font-weight="normal" size="13" text-anchor="middle" text-decoration="none">submitted account ran</text><text id="ProcessOnText1073" x="68" y="78.325" fill="#000" family="Arial" font-family="Arial" font-size="13" font-style="normal" font-weight="normal" size="13" text-anchor="middle" text-decoration="none">out or not</text></g></g><g id="ProcessOnG1074" opacity="1" transform="matrix(1.0,0.0,0.0,1.0,294.0,469.0)"><path id="ProcessOnPath1075" fill="none" stroke="none" stroke-dasharray="none" stroke-width="0" d="M0.0 0.0L141.0 0.0L141.0 20.0L0.0 20.0Z" opacity="1"/><g id="ProcessOnG1076" transform="matrix(1.0,0.0,0.0,1.0,0.0,1.875)"><text id="ProcessOnText1077" x="69.5" y="13.325" fill="#000" family="Arial" font-family="Arial" font-size="13" font-style="normal" font-weight="normal" size="13" text-anchor="middle" text-decoration="none">YES</text></g></g><g id="ProcessOnG1078" opacity="1" transform="matrix(1.0,0.0,0.0,1.0,439.0,496.5)"><path id="ProcessOnPath1079" fill="none" stroke="#323232" stroke-dasharray="none" stroke-width="2" d="M100.0 0.0Q91.0 0.0 91.0 9.0L91.0 61.0Q91.0 70.0 78.0 70.0Q91.0 70.0 91.0 79.0L91.0 131.0Q91.0 140.0 100.0 140.0" opacity="1"/><path id="ProcessOnPath1080" fill="none" stroke="none" stroke-dasharray="none" stroke-width="0" d="M0.0 0.0L100.0 0.0L100.0 140.0L0.0 140.0Z" opacity="1"/></g><g id="ProcessOnG1081" opacity="1" transform="matrix(1.0,0.0,0.0,1.0,551.0,524.0)"><path id="ProcessOnPath1082" fill="none" stroke="none" stroke-dasharray="none" stroke-width="0" d="M0.0 0.0L138.0 0.0L138.0 105.0L0.0 105.0Z" opacity="1"/><g id="ProcessOnG1083" transform="matrix(1.0,0.0,0.0,1.0,0.0,11.875)"><text id="ProcessOnText1084" x="68" y="13.325" fill="#000" family="Arial" font-family="Arial" font-size="13" font-style="normal" font-weight="normal" size="13" text-anchor="middle" text-decoration="none">use account in</text><text id="ProcessOnText1085" x="68" y="29.575" fill="#000" family="Arial" font-family="Arial" font-size="13" font-style="normal" font-weight="normal" size="13" text-anchor="middle" text-decoration="none">WHITELIST to claim</text><text id="ProcessOnText1086" x="68" y="45.825" fill="#000" family="Arial" font-family="Arial" font-size="13" font-style="normal" font-weight="normal" size="13" text-anchor="middle" text-decoration="none">free plan using</text><text id="ProcessOnText1087" x="68" y="62.075" fill="#000" family="Arial" font-family="Arial" font-size="13" font-style="normal" font-weight="normal" size="13" text-anchor="middle" text-decoration="none">BankofStaked for</text><text id="ProcessOnText1088" x="68" y="78.325" fill="#000" family="Arial" font-family="Arial" font-size="13" font-style="normal" font-weight="normal" size="13" text-anchor="middle" text-decoration="none">qualified account.</text></g></g><g id="ProcessOnG1089" opacity="1" transform="matrix(1.0,0.0,0.0,1.0,439.0,696.5)"><path id="ProcessOnPath1090" fill="none" stroke="#323232" stroke-dasharray="none" stroke-width="2" d="M100.0 0.0Q91.0 0.0 91.0 9.0L91.0 61.0Q91.0 70.0 78.0 70.0Q91.0 70.0 91.0 79.0L91.0 131.0Q91.0 140.0 100.0 140.0" opacity="1"/><path id="ProcessOnPath1091" fill="none" stroke="none" stroke-dasharray="none" stroke-width="0" d="M0.0 0.0L100.0 0.0L100.0 140.0L0.0 140.0Z" opacity="1"/></g><g id="ProcessOnG1092" opacity="1" transform="matrix(1.0,0.0,0.0,1.0,551.0,714.0)"><path id="ProcessOnPath1093" fill="none" stroke="none" stroke-dasharray="none" stroke-width="0" d="M0.0 0.0L148.0 0.0L148.0 105.0L0.0 105.0Z" opacity="1"/><g id="ProcessOnG1094" transform="matrix(1.0,0.0,0.0,1.0,0.0,28.125)"><text id="ProcessOnText1095" x="73" y="13.325" fill="#000" family="Arial" font-family="Arial" font-size="13" font-style="normal" font-weight="normal" size="13" text-anchor="middle" text-decoration="none">0.8 EOS staked for CPU</text><text id="ProcessOnText1096" x="73" y="29.575" fill="#000" family="Arial" font-family="Arial" font-size="13" font-style="normal" font-weight="normal" size="13" text-anchor="middle" text-decoration="none">0.2 EOS staked for NET</text><text id="ProcessOnText1097" x="73" y="45.825" fill="#000" family="Arial" font-family="Arial" font-size="13" font-style="normal" font-weight="normal" size="13" text-anchor="middle" text-decoration="none">for 8 hours</text></g></g><g id="ProcessOnG1098" opacity="1" transform="matrix(1.0,0.0,0.0,1.0,73.0,6.0)"><path id="ProcessOnPath1099" fill="none" stroke="none" stroke-dasharray="none" stroke-width="0" d="M0.0 0.0L684.0 0.0L684.0 88.0L0.0 88.0Z" opacity="1"/><g id="ProcessOnG1100" transform="matrix(1.0,0.0,0.0,1.0,0.0,27.125)"><text id="ProcessOnText1101" x="341" y="27.675" fill="#000" family="Arial" font-family="Arial" font-size="27" font-style="normal" font-weight="normal" size="27" text-anchor="middle" text-decoration="none">Centralized CPU emergency using Bank of Staked</text></g></g><g id="ProcessOnG1102" opacity="1" transform="matrix(1.0,0.0,0.0,1.0,208.0,363.0)"><path id="ProcessOnPath1103" fill="none" stroke="none" stroke-dasharray="none" stroke-width="0" d="M0.0 0.0L141.0 0.0L141.0 20.0L0.0 20.0Z" opacity="1"/><g id="ProcessOnG1104" transform="matrix(1.0,0.0,0.0,1.0,0.0,1.875)"><text id="ProcessOnText1105" x="69.5" y="13.325" fill="#000" family="Arial" font-family="Arial" font-size="13" font-style="normal" font-weight="normal" size="13" text-anchor="middle" text-decoration="none">NO</text></g></g><g id="ProcessOnG1106" opacity=".3" transform="matrix(1.0,0.0,0.0,1.0,102.85714285714289,175.33236151603558)"><path id="ProcessOnPath1107" fill="#c3c3c3" stroke="#323232" stroke-dasharray="none" stroke-width="2" d="M0.0 0.0L618.5714285714286 0.0L618.5714285714286 504.6676384839644L0.0 504.6676384839644Z" opacity="1"/></g></g></g></svg>